<?xml version="1.0" encoding="utf-8"?>
<!-- Generator: Adobe Illustrator 14.0.0, SVG Export Plug-In . SVG Version: 6.00 Build 43363)  -->
<!DOCTYPE svg PUBLIC "-//W3C//DTD SVG 1.1//EN" "http://www.w3.org/Graphics/SVG/1.1/DTD/svg11.dtd">
<svg version="1.1" id="Capa_1" xmlns="http://www.w3.org/2000/svg" xmlns:xlink="http://www.w3.org/1999/xlink" x="0px" y="0px"
	 width="150px" height="150px" viewBox="0 0 150 150" enable-background="new 0 0 150 150" xml:space="preserve">
<g>
	<g>
		<path fill="#FFFFFF" d="M147.531,75.571c0-3.687-0.282-7.309-0.82-10.847c0.332,1.873,0.684,3.679,1.189,5.288
			c0.556,4.183,2.1,5.558,2.1,5.559c-0.604-10.454-1.862-19.725-5.285-29.662c-1.611-3.161-3.813-7.19-5.441-10.003
			c-7.199-11.471-17.133-22.023-30.049-27.944c0.588,0.484-0.248,0.395-0.934,0.162l-0.09-0.223l-1.145-0.145
			c-0.959-0.417-0.368-0.648,0.459-0.32c-5.042-2.44-9.887-3.862-15.142-5.223c-0.468,0.429-2.755-0.677-3.065-0.08
			C89.082,1.992,89.317,2,89.49,1.915c-3.783-0.269-3.995-0.364-7.345-1.45c-14.683-1.708-29.213,1.37-42.17,7.888
			C26.938,15.193,16.43,25.832,9.19,38.792c-0.438,2.341-2.004,5.028-2.524,7.701l-0.169-0.257c-0.537,2.232-1.079,2.618-2.41,5.218
			c0.28,0.127-0.301,1.067,0.318,0.839c0.04,1.049-1.292,1.472-1.41,2.947c-0.175,0.002,0.298,0.047,0.069,0.299
			c-0.342,3.758-0.089-0.774-1.753,3.711c-1.186,6.55-1.385,13.336-1.29,19.663c-0.043-0.393,0.351-0.589,0.39,0.048
			c-0.787,0.652,0.333,2.122,0.065,3.254c-0.172-0.072-0.254-0.601-0.341-0.889c-0.271,2.938,0.867,5.242,0.837,8.025
			c0.715,2.496,0.998,5.515,1.766,7.108c-0.406-0.316,0.028,1.206,0.082,1.778c1.596,1.458,1.404,4.925,2.921,6.886l-0.191-0.005
			c2.911,6.464,6.871,13.223,11.973,18.622c2.765,3.08,5.531,6.996,9.335,9.675c0.755,0.412,0.354-0.157,0.957,0.182
			c0.909,0.707-0.199,0.228,0.087,0.584c2.105,0.97,4.055,3.35,6.575,4.715c0.368,0.043,1.072,0.415,0.965,0.082
			c2.295,2.319,6.598,3.415,9.316,5.2c-0.686-1.217,1.895,0.389,3.058,0.515c0.567,0.246,0.563,0.466,0.34,0.555
			c2.303,0.711,3.438,1.273,6.169,2.184c1.322,0.241,1.782-0.112,3.296,0.406c0.824,0.866,3.231,0.816,4.751,1.195
			c-0.303-0.552,1.715-0.65,3.215-0.205l-0.566,0.626c4.944,0.341,12.172,1.153,17.905-0.243l0.474,0.346
			c5.859-1.273,11.823-1.939,16.929-4.772c1.525-0.333,3.945-0.981,5.29-1.723c1.735-1.224,2.427-1.509,3.438-2.622
			c0.679-0.369,1.267-0.272,1.585-0.315c2.271-1.264,4.79-2.036,6.169-3.74l0.269,0.241c1.453-1.566,3.648-3.598,5.676-4.806
			c0.283-0.675,1.926-2.321,0.87-1.92c0.626-0.665,0.839,0.046,1.277-0.856l-0.307,0.965c4.019-3.364,6.817-6.889,9.563-11.087
			c1.454-0.765,2.765-3.914,4.469-6.211c0.665-1.549,2.373-3.934,2.211-5.396l0.354,0.078c1.101-1.954,2.272-4.719,3.367-7.444
			c0.675-1.579,0.22-1.731,0.448-3.052l0.357,0.025c0.144-1.305-0.166-1.866-0.388-2.398c0.177-0.643,0.344-1.29,0.502-1.942
			c0.056-0.152,0.118-0.311,0.223-0.521c-0.081,1.092,0.057,2.084,0.336,2.921c0.603-1.724,0.178-3.672,0.989-4.627
			c0.36-1.43,0.401-2.589,0.025-2.855c0.135-0.059,0.372-0.848,0.439-0.109c0.157-1.105,0.225-1.827,0.139-2.519
			c-0.035,0.212-0.134,0.498-0.157,0.738c-0.235-0.513-0.128-1.392-0.463-1.508c0.056-0.468,0.121-0.933,0.167-1.402
			c0.32-0.047,0.36,1.331,0.664,0.574l-0.533-2.291C147.441,79.193,147.531,77.394,147.531,75.571z M61.472,4.79
			c0.063-0.014,0.127-0.026,0.199-0.035C61.604,4.768,61.538,4.778,61.472,4.79z M24.771,23.559
			c0.013-0.024,0.023-0.047,0.035-0.071c0,0.01,0.012,0.015,0.018,0.022C24.807,23.527,24.79,23.542,24.771,23.559z M146.345,62.646
			c-0.508-2.78-1.161-5.508-1.98-8.167C145.332,57.044,145.862,59.876,146.345,62.646z M143.506,51.909
			c-0.417-1.187-0.859-2.362-1.338-3.519c0.441,0.865,0.871,1.696,1.274,2.445C143.85,51.65,143.671,51.801,143.506,51.909z
			 M120.766,19.588c2.688,1.574,4.287,4.527,6.612,5.358l0.886,0.275c0.359,0.659,0.083,0.84,0.341,1.358
			c0.632,0.236,1.947,2.002,2.504,1.999c0.075,0.363-0.281,0.058-0.377,0.152c0.907,1.069,2.321,2.032,3.043,3.168l-0.419-0.216
			c1.345,2.134,2.66,4.539,3.928,6.978c-4.92-8.169-11.418-15.292-19.085-20.947c1,0.623,1.981,1.226,2.925,1.768
			C121.252,19.708,120.953,19.591,120.766,19.588z M107.184,10.809c0.063,0.092,0.068,0.168,0.051,0.237
			c-0.104-0.052-0.205-0.106-0.311-0.158C107.029,10.876,107.119,10.854,107.184,10.809z M89.144,4.914
			c-0.196-0.039-0.399-0.069-0.597-0.105c0.179,0.018,0.357,0.034,0.538,0.053C89.11,4.881,89.123,4.896,89.144,4.914z
			 M66.216,4.067c-0.144,0.018-0.288,0.037-0.431,0.055c0.134-0.032,0.256-0.063,0.351-0.094
			C66.156,4.045,66.192,4.052,66.216,4.067z M59.844,5.104c-0.221,0.047-0.438,0.103-0.66,0.151c0.193-0.096,0.394-0.186,0.565-0.3
			C59.813,4.999,59.839,5.05,59.844,5.104z M52.521,6.958l-0.105,0.133c-0.374,0.121-0.742,0.247-1.112,0.374
			C51.392,7.287,51.623,7.117,52.521,6.958z M38.483,13.297c-0.306,0.178-0.619,0.346-0.924,0.528c-0.002-0.005,0-0.011-0.004-0.016
			C37.999,13.505,38.286,13.359,38.483,13.297z M30.804,17.613c0.485,0.053-0.513,0.356-0.485,0.662l1.096-0.339
			c-1.387,1.035-2.723,2.13-4.031,3.259c0.239-0.45,0.46-0.884,0.718-1.297C28.638,19.516,30.24,18.091,30.804,17.613z
			 M145.973,90.456c0.078-0.368,0.146-0.74,0.22-1.11C146.177,89.735,146.123,90.11,145.973,90.456z"/>
		<path fill="#FFFFFF" d="M148.416,76.669c0.191-0.542,0.055-0.872-0.141-1.098C147.926,77.567,148.386,74.99,148.416,76.669z"/>
		<path fill="#FFFFFF" d="M48.002,145.294c0.064-0.006,0.108-0.027,0.154-0.046c-0.268-0.083-0.541-0.166-0.845-0.253
			L48.002,145.294z"/>
		<path fill="#FFFFFF" d="M147.598,84.605c0.016,0.088,0.02,0.177,0.031,0.265C147.65,84.747,147.654,84.644,147.598,84.605z"/>
		<path fill="#FFFFFF" d="M0.972,89.358c0-0.003,0-0.006,0-0.007c-0.064-0.22-0.123-0.443-0.194-0.653L0.972,89.358z"/>
		<path fill="#FFFFFF" d="M148.373,78.691c-0.249-0.132-0.579,0.456-0.853,0.559C147.854,80.199,148.069,79.042,148.373,78.691z"/>
	</g>
	<ellipse cx="74.958" cy="75.571" rx="67.977" ry="67.479"/>
	<g>
		<g>
			<path fill="#FFFFFF" d="M35.11,58.804c0.173-0.894,0.321-1.675,0.454-2.34c0.139-0.665,0.258-1.284,0.362-1.858
				c0.103-0.574,0.205-1.142,0.299-1.71c0.09-0.563,0.195-1.194,0.295-1.895c0.116-0.7,0.243-1.502,0.388-2.404
				c0.142-0.902,0.315-1.985,0.527-3.25c0.045-0.321,0.128-0.526,0.252-0.618c0.119-0.094,0.414-0.141,0.891-0.141
				c0.187,0,0.471,0.01,0.842,0.037c0.371,0.025,0.746,0.104,1.117,0.231c0.376,0.125,0.7,0.318,0.986,0.58
				c0.275,0.262,0.42,0.63,0.42,1.1c0,0.27-0.054,0.688-0.158,1.252c-0.097,0.564-0.236,1.215-0.415,1.949
				c-0.179,0.731-0.382,1.531-0.619,2.391c-0.224,0.859-0.457,1.728-0.697,2.603c-0.235,0.878-0.479,1.729-0.729,2.556
				c-0.246,0.826-0.473,1.572-0.686,2.238c-0.216,0.667-0.401,1.227-0.573,1.681c-0.17,0.454-0.291,0.751-0.359,0.884
				c-0.1,0.189-0.241,0.312-0.429,0.382c-0.189,0.067-0.371,0.1-0.559,0.1h-2.423c-0.442,0-0.813-0.084-1.105-0.254
				c-0.301-0.167-0.548-0.387-0.746-0.658c-0.193-0.271-0.35-0.571-0.457-0.909c-0.108-0.336-0.182-0.682-0.216-1.038l-1.275-11.354
				c-0.101,0.742-0.215,1.575-0.344,2.502c-0.125,0.93-0.264,1.875-0.402,2.833c-0.15,0.959-0.289,1.904-0.423,2.833
				c-0.138,0.93-0.271,1.775-0.411,2.542c-0.133,0.77-0.26,1.422-0.381,1.962c-0.115,0.536-0.223,0.892-0.299,1.059
				c-0.09,0.189-0.227,0.312-0.411,0.382c-0.19,0.067-0.388,0.1-0.589,0.1h-2.424c-0.419,0-0.771-0.08-1.057-0.239
				c-0.278-0.161-0.511-0.375-0.695-0.645c-0.188-0.271-0.346-0.58-0.46-0.924c-0.118-0.347-0.223-0.695-0.308-1.05
				c-0.698-2.747-1.259-5.007-1.695-6.776c-0.428-1.772-0.774-3.191-1.026-4.263c-0.258-1.072-0.431-1.854-0.524-2.354
				c-0.091-0.494-0.143-0.856-0.143-1.074c0-0.286,0.089-0.47,0.27-0.555c0.176-0.086,0.552-0.127,1.134-0.127
				c0.717,0,1.31,0.051,1.794,0.152c0.485,0.101,0.885,0.256,1.186,0.467c0.306,0.21,0.538,0.489,0.702,0.834
				c0.156,0.346,0.267,0.764,0.318,1.251c0,0.069,0.003,0.167,0.029,0.293c0.016,0.125,0.033,0.334,0.056,0.619
				c0.029,0.289,0.068,0.678,0.131,1.173c0.056,0.5,0.139,1.161,0.232,1.987c0.094,0.825,0.208,1.85,0.354,3.073
				c0.147,1.224,0.318,2.688,0.521,4.39c0.188-1.03,0.337-1.86,0.445-2.496c0.108-0.629,0.21-1.185,0.298-1.666
				c0.077-0.481,0.159-0.941,0.227-1.39c0.067-0.448,0.147-1.004,0.241-1.67c0.09-0.667,0.204-1.505,0.337-2.516
				c0.12-1.011,0.283-2.329,0.488-3.945c0.02-0.117,0.093-0.212,0.221-0.28c0.122-0.065,0.28-0.115,0.464-0.15
				c0.19-0.036,0.401-0.055,0.626-0.065c0.23-0.008,0.448-0.01,0.65-0.01c0.681,0,1.258,0.036,1.735,0.115
				c0.476,0.074,0.872,0.205,1.185,0.392c0.314,0.185,0.564,0.434,0.751,0.744c0.19,0.315,0.344,0.695,0.457,1.152
				c0.051,0.22,0.113,0.516,0.185,0.896c0.063,0.382,0.147,0.983,0.237,1.81c0.094,0.826,0.213,1.961,0.355,3.401
				C34.679,54.566,34.873,56.458,35.11,58.804z"/>
			<path fill="#FFFFFF" d="M46.147,62.571c-0.959,0-1.634-0.188-2.04-0.557c-0.41-0.369-0.614-0.901-0.614-1.593
				c0-0.337,0.022-0.916,0.07-1.732c0.056-0.817,0.125-1.749,0.21-2.795c0.082-1.044,0.167-2.148,0.255-3.314
				c0.082-1.163,0.174-2.257,0.253-3.285c0.087-1.028,0.155-1.935,0.204-2.708c0.051-0.773,0.08-1.305,0.08-1.593
				c0-0.252,0.128-0.378,0.405-0.378h8.97c0.102,0,0.198,0.024,0.277,0.076c0.088,0.05,0.134,0.143,0.134,0.28l-0.108,1.492
				c-0.031,0.504-0.175,0.913-0.419,1.225c-0.247,0.311-0.751,0.47-1.517,0.47h-3.512l-0.255,3.565h3.617
				c0.102,0,0.198,0.023,0.283,0.077c0.08,0.049,0.123,0.143,0.123,0.276l-0.102,1.493c-0.035,0.504-0.176,0.914-0.417,1.228
				c-0.25,0.311-0.751,0.468-1.521,0.468h-2.215l-0.281,3.766h5.607c0.102,0,0.193,0.032,0.278,0.089
				c0.087,0.061,0.13,0.148,0.13,0.266l-0.102,1.492c-0.034,0.507-0.173,0.916-0.422,1.228c-0.244,0.312-0.754,0.468-1.514,0.468
				H46.147z"/>
			<path fill="#FFFFFF" d="M76.817,58.804c0.172-0.894,0.325-1.675,0.459-2.34c0.133-0.665,0.255-1.284,0.356-1.858
				c0.097-0.574,0.2-1.142,0.293-1.71c0.093-0.563,0.194-1.194,0.308-1.895c0.11-0.7,0.237-1.502,0.384-2.404
				c0.145-0.902,0.313-1.985,0.519-3.25c0.047-0.321,0.137-0.526,0.255-0.618c0.119-0.094,0.413-0.141,0.893-0.141
				c0.188,0,0.467,0.01,0.841,0.037c0.371,0.025,0.744,0.104,1.118,0.231c0.377,0.125,0.704,0.318,0.981,0.58
				c0.281,0.262,0.425,0.63,0.425,1.1c0,0.27-0.054,0.688-0.156,1.252c-0.104,0.564-0.237,1.215-0.419,1.949
				c-0.183,0.731-0.381,1.531-0.612,2.391c-0.224,0.859-0.459,1.728-0.701,2.603c-0.237,0.878-0.479,1.729-0.726,2.556
				c-0.249,0.826-0.476,1.572-0.686,2.238c-0.208,0.667-0.406,1.227-0.575,1.681c-0.17,0.454-0.29,0.751-0.357,0.884
				c-0.102,0.189-0.243,0.312-0.43,0.382c-0.193,0.067-0.379,0.1-0.564,0.1h-2.424c-0.437,0-0.803-0.084-1.105-0.254
				c-0.296-0.167-0.542-0.387-0.738-0.658c-0.19-0.271-0.348-0.571-0.458-0.909c-0.108-0.336-0.182-0.682-0.219-1.038l-1.267-11.354
				c-0.107,0.742-0.218,1.575-0.348,2.502c-0.128,0.93-0.261,1.875-0.405,2.833c-0.147,0.959-0.29,1.904-0.426,2.833
				c-0.136,0.93-0.269,1.775-0.402,2.542c-0.137,0.77-0.267,1.422-0.385,1.962c-0.12,0.536-0.219,0.892-0.307,1.059
				c-0.076,0.189-0.215,0.312-0.402,0.382c-0.188,0.067-0.379,0.1-0.592,0.1h-2.418c-0.426,0-0.779-0.08-1.055-0.239
				c-0.283-0.161-0.513-0.375-0.7-0.645c-0.187-0.271-0.34-0.58-0.462-0.924c-0.116-0.347-0.218-0.695-0.303-1.05
				c-0.698-2.747-1.265-5.007-1.698-6.776c-0.431-1.772-0.772-3.191-1.026-4.263c-0.255-1.072-0.43-1.854-0.531-2.354
				c-0.084-0.494-0.132-0.856-0.132-1.074c0-0.286,0.085-0.47,0.27-0.555c0.172-0.086,0.552-0.127,1.125-0.127
				c0.716,0,1.315,0.051,1.799,0.152c0.485,0.101,0.877,0.256,1.183,0.467c0.306,0.21,0.541,0.489,0.707,0.834
				c0.162,0.346,0.27,0.764,0.314,1.251c0,0.069,0.012,0.167,0.029,0.293c0.019,0.125,0.039,0.334,0.059,0.619
				c0.031,0.289,0.074,0.678,0.13,1.173c0.058,0.5,0.137,1.161,0.23,1.987c0.091,0.825,0.21,1.85,0.357,3.073
				c0.142,1.224,0.317,2.688,0.525,4.39c0.179-1.03,0.332-1.86,0.445-2.496c0.104-0.629,0.206-1.185,0.294-1.666
				c0.08-0.481,0.156-0.941,0.23-1.39c0.064-0.448,0.144-1.004,0.237-1.67c0.097-0.667,0.205-1.505,0.33-2.516
				c0.13-1.011,0.295-2.329,0.501-3.945c0.011-0.117,0.088-0.212,0.21-0.28c0.133-0.065,0.292-0.115,0.474-0.15
				c0.189-0.036,0.394-0.055,0.623-0.065c0.232-0.008,0.451-0.01,0.652-0.01c0.677,0,1.253,0.036,1.731,0.115
				c0.478,0.074,0.874,0.205,1.186,0.392c0.312,0.185,0.566,0.434,0.754,0.744c0.184,0.315,0.34,0.695,0.454,1.152
				c0.055,0.22,0.114,0.516,0.182,0.896c0.073,0.382,0.144,0.983,0.245,1.81c0.091,0.826,0.212,1.961,0.354,3.401
				C76.386,54.566,76.584,56.458,76.817,58.804z"/>
			<path fill="#FFFFFF" d="M92.688,44.614c0.426,0,0.778,0.078,1.061,0.241c0.281,0.158,0.515,0.369,0.697,0.63
				c0.19,0.261,0.34,0.56,0.46,0.896c0.125,0.338,0.226,0.684,0.307,1.039c0.684,2.73,1.242,4.98,1.686,6.755
				c0.437,1.769,0.792,3.198,1.045,4.285c0.248,1.088,0.429,1.893,0.533,2.415c0.101,0.522,0.156,0.885,0.156,1.087
				c0,0.238-0.059,0.397-0.166,0.482c-0.109,0.084-0.285,0.126-0.523,0.126h-1.306c-0.723,0-1.31-0.087-1.741-0.266
				c-0.434-0.176-0.768-0.436-0.997-0.772c-0.229-0.335-0.392-0.745-0.493-1.226c-0.105-0.479-0.185-1.024-0.252-1.631h-4.439
				l-0.835,3.491c-0.092,0.271-0.284,0.405-0.592,0.405h-1.344c-0.276,0-0.553-0.028-0.841-0.087
				c-0.294-0.061-0.551-0.156-0.783-0.291c-0.227-0.134-0.422-0.308-0.575-0.519c-0.147-0.211-0.224-0.469-0.224-0.772
				c0-0.371,0.118-0.978,0.354-1.821c0.234-0.846,0.539-1.802,0.905-2.872c0.364-1.069,0.773-2.191,1.222-3.362
				c0.451-1.172,0.891-2.281,1.316-3.325c0.427-1.045,0.808-1.967,1.16-2.76c0.343-0.792,0.612-1.348,0.8-1.667
				c0.137-0.236,0.259-0.377,0.374-0.419c0.104-0.04,0.316-0.061,0.619-0.061H92.688z M89.636,55.009h2.929l-1.072-6.677
				L89.636,55.009z"/>
			<path fill="#FFFFFF" d="M111.849,62.571c-0.698,0-1.211-0.1-1.552-0.306c-0.343-0.201-0.584-0.455-0.745-0.755
				c-0.876-1.805-1.705-3.533-2.479-5.186c-0.771-1.653-1.561-3.323-2.355-5.01c0.021,1.821,0.043,3.636,0.076,5.439
				c0.035,1.805,0.072,3.616,0.102,5.439c0,0.252-0.135,0.378-0.41,0.378h-1.397c-0.972,0-1.652-0.19-2.052-0.572
				c-0.396-0.377-0.596-0.938-0.596-1.681c0-0.203,0.009-0.544,0.04-1.025c0.022-0.479,0.059-1.049,0.106-1.707
				c0.056-0.653,0.109-1.377,0.166-2.161c0.065-0.783,0.125-1.58,0.192-2.39c0.103-1.28,0.187-2.343,0.256-3.188
				c0.067-0.842,0.128-1.552,0.171-2.135c0.038-0.583,0.067-1.08,0.087-1.491c0.013-0.414,0.03-0.824,0.048-1.229
				c0-0.252,0.137-0.378,0.409-0.378h2.035c0.566,0,1.021,0.061,1.376,0.188c0.361,0.126,0.654,0.302,0.879,0.521
				c0.235,0.217,0.41,0.467,0.545,0.746c0.143,0.278,0.268,0.57,0.387,0.872c0.41,1.046,0.773,1.948,1.087,2.705
				c0.307,0.761,0.59,1.428,0.826,2c0.237,0.573,0.443,1.069,0.623,1.49c0.178,0.424,0.345,0.813,0.499,1.165
				c0.147,0.354,0.307,0.696,0.457,1.023c0.148,0.331,0.315,0.691,0.48,1.076c0-0.995-0.001-2.017-0.01-3.072
				c-0.009-1.052-0.016-2.083-0.022-3.088c-0.007-1-0.021-1.964-0.026-2.894c-0.008-0.927-0.015-1.762-0.015-2.504
				c0-0.15,0.143-0.226,0.435-0.226h1.4c0.557,0,1.009,0.053,1.332,0.163c0.334,0.113,0.595,0.269,0.785,0.481
				c0.184,0.211,0.31,0.467,0.364,0.772c0.062,0.303,0.091,0.647,0.091,1.035c0,0.422-0.027,1.066-0.078,1.936
				c-0.05,0.868-0.108,1.841-0.178,2.922c-0.065,1.077-0.146,2.196-0.228,3.349c-0.085,1.157-0.165,2.225-0.243,3.201
				c-0.076,0.979-0.145,1.809-0.205,2.491c-0.059,0.685-0.091,1.084-0.113,1.202c0,0.135-0.049,0.234-0.141,0.305
				c-0.094,0.067-0.199,0.1-0.319,0.1H111.849z"/>
			<path fill="#FFFFFF" d="M126.217,48.156l-0.964,14.036c-0.013,0.252-0.11,0.378-0.281,0.378h-1.401
				c-0.954,0-1.629-0.188-2.036-0.557c-0.409-0.369-0.616-0.901-0.616-1.593c0-0.253,0.016-0.632,0.045-1.138
				c0.023-0.507,0.061-1.1,0.108-1.783c0.054-0.683,0.11-1.424,0.171-2.227c0.054-0.798,0.123-1.608,0.187-2.426
				c0.067-0.818,0.137-1.632,0.193-2.44c0.057-0.812,0.114-1.56,0.163-2.25h-4.078c-0.185,0-0.275-0.119-0.275-0.356l0.076-1.418
				c0.015-0.217,0.051-0.432,0.115-0.643c0.057-0.209,0.159-0.397,0.291-0.57c0.137-0.166,0.311-0.304,0.522-0.404
				c0.208-0.103,0.47-0.151,0.78-0.151h11.384c0.104,0,0.198,0.024,0.284,0.076c0.081,0.05,0.127,0.143,0.127,0.28l-0.102,1.492
				c-0.041,0.504-0.174,0.913-0.418,1.225c-0.252,0.311-0.755,0.47-1.518,0.47H126.217z"/>
		</g>
		<g>
			<path fill="#FFFFFF" d="M29.25,106.579c-2.061,0-3.761-0.132-5.097-0.393c-1.324-0.262-2.387-0.643-3.172-1.146
				c-0.785-0.507-1.333-1.143-1.633-1.905c-0.296-0.764-0.443-1.666-0.443-2.71c0-0.314,0.015-0.759,0.052-1.332
				c0.034-0.57,0.088-1.381,0.159-2.424c0.068-1.043,0.167-2.391,0.283-4.042c0.125-1.652,0.292-3.73,0.505-6.229
				c0.241-3.097,0.433-5.546,0.579-7.354c0.139-1.808,0.241-3.21,0.314-4.202c0.068-0.992,0.111-1.684,0.136-2.083
				c0.012-0.401,0.022-0.74,0.022-1.016c0-0.557,0.006-1.009,0.026-1.357c0.015-0.349,0.051-0.617,0.107-0.809
				c0.048-0.188,0.133-0.328,0.261-0.416c0.125-0.087,0.306-0.134,0.552-0.134c2.061-0.136,3.822-0.24,5.278-0.308
				c1.449-0.072,2.719-0.11,3.811-0.11c2.661,0,4.94,0.219,6.852,0.655c1.911,0.436,3.456,1.053,4.649,1.851
				c1.188,0.8,2.064,1.793,2.625,2.973c0.562,1.181,0.837,2.523,0.837,4.017c0,0.832-0.082,1.693-0.255,2.58
				c-0.176,0.887-0.475,1.729-0.896,2.531c-0.42,0.798-0.99,1.501-1.71,2.11c-0.716,0.609-1.621,1.054-2.707,1.33
				c2.036,0.625,3.47,1.658,4.312,3.102c0.842,1.441,1.256,3.155,1.256,5.137c0,1.602-0.255,3.104-0.782,4.512
				c-0.521,1.406-1.435,2.643-2.728,3.702c-1.296,1.061-3.016,1.902-5.156,2.528C35.152,106.263,32.474,106.579,29.25,106.579z
				 M32.25,90.412c-0.383,0-0.859,0.023-1.423,0.078c-0.556,0.052-1.136,0.131-1.731,0.233l-0.578,8.501
				c1.26,0.384,2.401,0.573,3.415,0.573c1.086,0,1.963-0.155,2.625-0.47c0.666-0.313,1.183-0.704,1.551-1.173
				c0.369-0.468,0.612-0.99,0.74-1.566c0.121-0.573,0.181-1.1,0.181-1.588c0-1.287-0.36-2.373-1.074-3.259
				C35.229,90.854,33.996,90.412,32.25,90.412z M30.044,76.069c-0.071,0.905-0.136,1.967-0.187,3.184
				c-0.057,1.214-0.13,2.535-0.236,3.964c1.121,0.278,2.118,0.415,2.994,0.415c1.049,0,1.892-0.125,2.521-0.365
				c0.632-0.242,1.136-0.554,1.496-0.937c0.369-0.382,0.615-0.803,0.735-1.257c0.124-0.451,0.187-0.883,0.187-1.298
				c0-1.079-0.357-2.011-1.077-2.792c-0.723-0.782-1.953-1.173-3.708-1.173c-0.379,0-0.813,0.024-1.278,0.078
				C31.017,75.939,30.529,76.002,30.044,76.069z"/>
			<path fill="#FFFFFF" d="M56.154,106.057c-1.965,0-3.368-0.38-4.202-1.148c-0.844-0.762-1.267-1.857-1.267-3.283
				c0-0.695,0.051-1.888,0.162-3.572c0.099-1.688,0.243-3.608,0.419-5.765c0.176-2.156,0.349-4.433,0.521-6.832
				c0.179-2.396,0.355-4.656,0.533-6.777c0.171-2.123,0.31-3.982,0.414-5.582c0.104-1.596,0.165-2.695,0.165-3.285
				c0-0.52,0.273-0.785,0.836-0.785h18.493c0.206,0,0.399,0.057,0.573,0.16c0.178,0.105,0.264,0.296,0.264,0.573l-0.21,3.076
				c-0.068,1.045-0.362,1.887-0.868,2.53c-0.504,0.642-1.547,0.967-3.127,0.967h-7.246l-0.521,7.351h7.458
				c0.21,0,0.403,0.051,0.579,0.159c0.172,0.103,0.258,0.294,0.258,0.573l-0.206,3.074c-0.069,1.045-0.358,1.889-0.868,2.531
				c-0.511,0.641-1.552,0.966-3.127,0.966h-4.573l-0.575,7.767h11.561c0.207,0,0.397,0.064,0.575,0.186
				c0.171,0.119,0.261,0.307,0.261,0.545l-0.206,3.078c-0.074,1.046-0.36,1.885-0.871,2.529c-0.507,0.646-1.544,0.966-3.126,0.966
				H56.154z"/>
			<path fill="#FFFFFF" d="M82.463,106.057c-1.955,0-3.357-0.38-4.195-1.148c-0.845-0.762-1.261-1.857-1.261-3.283
				c0-0.695,0.046-1.888,0.157-3.572c0.102-1.688,0.242-3.608,0.418-5.765c0.174-2.156,0.352-4.433,0.527-6.832
				c0.176-2.396,0.351-4.656,0.524-6.777c0.175-2.123,0.312-3.982,0.419-5.582c0.109-1.596,0.161-2.695,0.161-3.285
				c0-0.52,0.27-0.785,0.837-0.785h18.494c0.204,0,0.4,0.057,0.576,0.16c0.174,0.105,0.258,0.296,0.258,0.573l-0.206,3.076
				c-0.071,1.045-0.362,1.887-0.87,2.53c-0.502,0.642-1.544,0.967-3.125,0.967h-7.243l-0.526,7.351h7.456
				c0.209,0,0.405,0.051,0.581,0.159c0.175,0.103,0.258,0.294,0.258,0.573l-0.211,3.074c-0.064,1.045-0.355,1.889-0.864,2.531
				c-0.513,0.641-1.551,0.966-3.124,0.966h-4.572l-0.576,7.767H97.91c0.208,0,0.4,0.064,0.582,0.186
				c0.174,0.119,0.257,0.307,0.257,0.545l-0.204,3.078c-0.078,1.046-0.361,1.885-0.873,2.529c-0.506,0.646-1.543,0.966-3.117,0.966
				H82.463z"/>
			<path fill="#FFFFFF" d="M108.791,106.057c-1.995,0-3.409-0.392-4.232-1.175c-0.821-0.782-1.229-1.937-1.229-3.466
				c0-0.419,0.024-1.122,0.079-2.112c0.047-0.993,0.127-2.165,0.229-3.521c0.107-1.355,0.219-2.844,0.344-4.458
				c0.125-1.618,0.256-3.261,0.395-4.926c0.28-3.513,0.485-6.366,0.605-8.557c0.12-2.189,0.223-3.909,0.289-5.161
				c0.104-1.565,0.208-2.565,0.313-2.999c0.106-0.433,0.333-0.655,0.686-0.655c1.089,0,2.199-0.021,3.333-0.075
				c1.136-0.053,2.234-0.111,3.281-0.183c1.056-0.068,2.044-0.13,2.967-0.183c0.934-0.049,1.768-0.077,2.497-0.077
				c2.247,0,4.169,0.278,5.786,0.831c1.607,0.561,2.914,1.341,3.908,2.347c1.003,1.011,1.737,2.228,2.207,3.654
				c0.473,1.427,0.706,3.023,0.706,4.797c0,2.712-0.544,5.129-1.621,7.25c-1.089,2.118-2.826,3.735-5.2,4.847l4.406,6.257
				c0.805,1.187,1.423,2.1,1.84,2.74c0.42,0.644,0.633,1.121,0.633,1.434c0,0.244-0.145,0.584-0.445,1.017
				c-0.298,0.435-0.737,0.872-1.313,1.305c-0.58,0.435-1.281,0.81-2.106,1.124c-0.822,0.31-1.736,0.468-2.756,0.468
				c-1.116,0-2.091-0.367-2.916-1.096c-0.82-0.729-1.554-1.695-2.203-2.894c-0.652-1.2-1.213-2.582-1.684-4.149
				c-0.473-1.562-0.92-3.194-1.336-4.901c-1.261-0.067-2.295-0.188-3.099-0.364c-0.106,1.53-0.218,2.989-0.319,4.38
				c-0.104,1.393-0.189,2.633-0.261,3.729c-0.07,1.094-0.143,2.001-0.212,2.713c-0.072,0.712-0.105,1.137-0.105,1.277
				c-0.038,0.278-0.105,0.477-0.209,0.599c-0.106,0.125-0.315,0.184-0.631,0.184H108.791z M117.298,76.332
				c-0.418,0-0.889,0.023-1.42,0.077c-0.52,0.052-1.08,0.113-1.68,0.184c-0.068,1.214-0.149,2.667-0.235,4.354
				c-0.083,1.688-0.2,3.484-0.341,5.396c1.224,0.281,2.299,0.419,3.205,0.419c1.087,0,1.974-0.208,2.652-0.627
				c0.687-0.418,1.218-0.929,1.601-1.538c0.387-0.608,0.642-1.26,0.765-1.957c0.122-0.691,0.18-1.318,0.18-1.874
				c0-1.427-0.351-2.523-1.05-3.288C120.272,76.713,119.049,76.332,117.298,76.332z"/>
		</g>
	</g>
</g>
</svg>
