<?xml version="1.0" encoding="UTF-8" standalone="no"?>
<!-- Created with Inkscape (http://www.inkscape.org/) -->

<svg
   xmlns:dc="http://purl.org/dc/elements/1.1/"
   xmlns:cc="http://creativecommons.org/ns#"
   xmlns:rdf="http://www.w3.org/1999/02/22-rdf-syntax-ns#"
   xmlns:svg="http://www.w3.org/2000/svg"
   xmlns="http://www.w3.org/2000/svg"
   version="1.1"
   width="30"
   height="30"
   viewBox="0 0 30 30"
   id="Capa_1"
   xml:space="preserve"><metadata
   id="metadata9"><rdf:RDF><cc:Work
       rdf:about=""><dc:format>image/svg+xml</dc:format><dc:type
         rdf:resource="http://purl.org/dc/dcmitype/StillImage" /><dc:title></dc:title></cc:Work></rdf:RDF></metadata><defs
   id="defs7" />
<path
   d="M 28.344,0 H 1.655 C 0.741,0 0,0.741 0,1.655 V 28.343 C 0,29.26 0.741,30 1.655,30 H 16.023 V 18.383 h -3.909 v -4.528 h 3.909 v -3.339 c 0,-3.875 2.367,-5.984 5.822,-5.984 1.657,0 3.08,0.123 3.495,0.178 v 4.05 l -2.397,0 c -1.88,0 -2.244,0.894 -2.244,2.204 v 2.891 h 4.483 l -0.584,4.528 H 20.699 V 30 h 7.645 C 29.258,30 30,29.26 30,28.344 V 1.655 C 30,0.741 29.258,0 28.344,0 z"
   id="path3" />
</svg>