<?xml version="1.0" encoding="utf-8"?>
<!-- Generator: Adobe Illustrator 14.0.0, SVG Export Plug-In . SVG Version: 6.00 Build 43363)  -->
<!DOCTYPE svg PUBLIC "-//W3C//DTD SVG 1.1//EN" "http://www.w3.org/Graphics/SVG/1.1/DTD/svg11.dtd">
<svg version="1.1" id="Capa_1" xmlns="http://www.w3.org/2000/svg" xmlns:xlink="http://www.w3.org/1999/xlink" x="0px" y="0px"
	 width="30px" height="30px" viewBox="0 0 30 30" enable-background="new 0 0 30 30" xml:space="preserve">
<path d="M28.344,0H1.655C0.741,0,0,0.741,0,1.655v26.688C0,29.26,0.741,30,1.655,30h14.368V18.383h-3.909v-4.528h3.909v-3.339
	c0-3.875,2.367-5.984,5.822-5.984c1.657,0,3.08,0.123,3.495,0.178v4.05L22.943,8.76c-1.88,0-2.244,0.894-2.244,2.204v2.891h4.483
	l-0.584,4.528h-3.899V30h7.645C29.258,30,30,29.26,30,28.344V1.655C30,0.741,29.258,0,28.344,0z"/>
</svg>
