<?xml version="1.0" encoding="utf-8"?>
<!-- Generator: Adobe Illustrator 14.0.0, SVG Export Plug-In . SVG Version: 6.00 Build 43363)  -->
<!DOCTYPE svg PUBLIC "-//W3C//DTD SVG 1.1//EN" "http://www.w3.org/Graphics/SVG/1.1/DTD/svg11.dtd">
<svg version="1.1" id="Capa_1" xmlns="http://www.w3.org/2000/svg" xmlns:xlink="http://www.w3.org/1999/xlink" x="0px" y="0px"
	 width="30px" height="30px" viewBox="0 0 30 30" enable-background="new 0 0 30 30" xml:space="preserve">
<path d="M29.931,11.347c-0.164-0.485-0.584-0.838-1.088-0.916l-8.703-1.33l-3.906-8.318C16.009,0.305,15.528,0,15,0
	c-0.53,0-1.011,0.305-1.235,0.784L9.859,9.102l-8.702,1.33c-0.506,0.077-0.926,0.431-1.087,0.916
	c-0.163,0.485-0.04,1.02,0.316,1.385l6.336,6.497l-1.497,9.187c-0.085,0.516,0.132,1.034,0.56,1.334
	c0.428,0.303,0.987,0.332,1.444,0.08L15,25.533l7.767,4.295c0.207,0.113,0.434,0.17,0.66,0.17c0.277,0,0.554-0.085,0.786-0.25
	c0.428-0.3,0.646-0.818,0.56-1.334l-1.498-9.187l6.338-6.497C29.968,12.366,30.091,11.832,29.931,11.347z"/>
</svg>
