<?xml version="1.0" encoding="utf-8"?>
<!-- Generator: Adobe Illustrator 14.0.0, SVG Export Plug-In . SVG Version: 6.00 Build 43363)  -->
<!DOCTYPE svg PUBLIC "-//W3C//DTD SVG 1.1//EN" "http://www.w3.org/Graphics/SVG/1.1/DTD/svg11.dtd">
<svg version="1.1" id="Capa_1" xmlns="http://www.w3.org/2000/svg" xmlns:xlink="http://www.w3.org/1999/xlink" x="0px" y="0px"
	 width="30px" height="30px" viewBox="0 0 30 30" enable-background="new 0 0 30 30" xml:space="preserve">
<g>
	<path fill="#B2B2B2" d="M29.931,11.347c-0.164-0.485-0.584-0.838-1.089-0.916l-8.703-1.33l-3.904-8.318C16.01,0.305,15.529,0,15,0
		v25.533l7.77,4.294c0.205,0.113,0.43,0.17,0.658,0.17c0.275,0,0.552-0.085,0.785-0.25c0.427-0.3,0.646-0.818,0.56-1.334
		l-1.497-9.186l6.337-6.5C29.967,12.366,30.092,11.832,29.931,11.347z"/>
	<path d="M13.766,0.784L9.86,9.102l-8.704,1.33c-0.504,0.078-0.925,0.431-1.087,0.916c-0.161,0.485-0.038,1.02,0.317,1.385
		l6.336,6.497l-1.497,9.187c-0.085,0.517,0.132,1.034,0.56,1.334c0.428,0.304,0.987,0.332,1.444,0.08L15,25.533V0
		C14.47,0,13.989,0.305,13.766,0.784z"/>
</g>
</svg>
