<?xml version="1.0" encoding="utf-8"?>
<!-- Generator: Adobe Illustrator 14.0.0, SVG Export Plug-In . SVG Version: 6.00 Build 43363)  -->
<!DOCTYPE svg PUBLIC "-//W3C//DTD SVG 1.1//EN" "http://www.w3.org/Graphics/SVG/1.1/DTD/svg11.dtd">
<svg version="1.1" id="Capa_1" xmlns="http://www.w3.org/2000/svg" xmlns:xlink="http://www.w3.org/1999/xlink" x="0px" y="0px"
	 width="20px" height="20px" viewBox="0 0 20 20" enable-background="new 0 0 20 20" xml:space="preserve">
<g id="keyboard-alt">
	<path d="M13.5,9C14.301,9,15,8.3,15,7.5S14.301,6,13.5,6C12.701,6,12,6.7,12,7.5S12.701,9,13.5,9z M6.5,9C7.3,9,8,8.3,8,7.5
		S7.3,6,6.5,6S5,6.7,5,7.5S5.7,9,6.5,9z M10,16c2.599,0,4.8-1.699,5.701-4H4.3C5.2,14.301,7.4,16,10,16z M10,0C4.5,0,0,4.5,0,10
		c0,5.502,4.5,10,10,10c5.5,0,10-4.498,10-10C20,4.5,15.5,0,10,0z M10,18c-4.4,0-8-3.6-8-8c0-4.399,3.6-8,8-8c4.4,0,8,3.601,8,8
		C18,14.4,14.4,18,10,18z"/>
</g>
</svg>
