<?xml version="1.0" encoding="UTF-8" standalone="no"?>
<!-- Created with Inkscape (http://www.inkscape.org/) -->

<svg
   xmlns:dc="http://purl.org/dc/elements/1.1/"
   xmlns:cc="http://creativecommons.org/ns#"
   xmlns:rdf="http://www.w3.org/1999/02/22-rdf-syntax-ns#"
   xmlns:svg="http://www.w3.org/2000/svg"
   xmlns="http://www.w3.org/2000/svg"
   version="1.1"
   width="20"
   height="20"
   viewBox="0 0 20 20"
   id="Capa_1"
   xml:space="preserve"><metadata
   id="metadata10"><rdf:RDF><cc:Work
       rdf:about=""><dc:format>image/svg+xml</dc:format><dc:type
         rdf:resource="http://purl.org/dc/dcmitype/StillImage" /><dc:title></dc:title></cc:Work></rdf:RDF></metadata><defs
   id="defs8" />
<g
   id="keyboard-alt">
	<path
   d="M 13.5,9 C 14.301,9 15,8.3 15,7.5 15,6.7 14.301,6 13.5,6 12.701,6 12,6.7 12,7.5 12,8.3 12.701,9 13.5,9 z m -7,0 C 7.3,9 8,8.3 8,7.5 8,6.7 7.3,6 6.5,6 5.7,6 5,6.7 5,7.5 5,8.3 5.7,9 6.5,9 z m 3.5,7 c 2.599,0 4.8,-1.699 5.701,-4 H 4.3 c 0.9,2.301 3.1,4 5.7,4 z M 10,0 C 4.5,0 0,4.5 0,10 0,15.502 4.5,20 10,20 15.5,20 20,15.502 20,10 20,4.5 15.5,0 10,0 z m 0,18 C 5.6,18 2,14.4 2,10 2,5.601 5.6,2 10,2 c 4.4,0 8,3.601 8,8 0,4.4 -3.6,8 -8,8 z"
   id="path4" />
</g>
</svg>