<?xml version="1.0" encoding="utf-8"?>
<!-- Generator: Adobe Illustrator 14.0.0, SVG Export Plug-In . SVG Version: 6.00 Build 43363)  -->
<!DOCTYPE svg PUBLIC "-//W3C//DTD SVG 1.1//EN" "http://www.w3.org/Graphics/SVG/1.1/DTD/svg11.dtd">
<svg version="1.1" id="Logo" xmlns="http://www.w3.org/2000/svg" xmlns:xlink="http://www.w3.org/1999/xlink" x="0px" y="0px"
	 width="30px" height="30px" viewBox="0 0 30 30" enable-background="new 0 0 30 30" xml:space="preserve">
<g>
	<path d="M15,2.703c4.006,0,4.479,0.015,6.062,0.087c1.463,0.066,2.257,0.311,2.785,0.516c0.7,0.272,1.2,0.598,1.725,1.122
		c0.525,0.525,0.851,1.025,1.122,1.725c0.206,0.528,0.45,1.323,0.517,2.785c0.072,1.582,0.088,2.056,0.088,6.061
		c0,4.006-0.016,4.479-0.088,6.062c-0.066,1.463-0.311,2.257-0.517,2.785c-0.271,0.7-0.597,1.2-1.122,1.725
		c-0.524,0.525-1.024,0.851-1.725,1.122c-0.528,0.206-1.322,0.45-2.785,0.517c-1.581,0.072-2.056,0.088-6.062,0.088
		c-4.005,0-4.479-0.016-6.061-0.088c-1.462-0.066-2.257-0.311-2.785-0.517c-0.7-0.271-1.2-0.597-1.725-1.122
		c-0.524-0.524-0.85-1.024-1.122-1.725c-0.205-0.528-0.45-1.322-0.516-2.785C2.718,19.479,2.703,19.006,2.703,15
		c0-4.005,0.015-4.479,0.087-6.061c0.066-1.462,0.311-2.257,0.516-2.785c0.272-0.7,0.598-1.2,1.122-1.725
		c0.525-0.524,1.025-0.85,1.725-1.122c0.528-0.205,1.323-0.45,2.785-0.516C10.521,2.718,10.995,2.703,15,2.703 M15,0
		c-4.074,0-4.584,0.018-6.184,0.09C7.219,0.163,6.129,0.417,5.175,0.788c-0.986,0.383-1.823,0.896-2.657,1.73
		c-0.833,0.834-1.347,1.671-1.73,2.657C0.417,6.129,0.163,7.219,0.09,8.816C0.018,10.416,0,10.926,0,15
		c0,4.074,0.018,4.585,0.09,6.185c0.073,1.597,0.327,2.688,0.697,3.642c0.383,0.986,0.896,1.822,1.73,2.656
		c0.834,0.834,1.671,1.347,2.657,1.73c0.954,0.371,2.044,0.624,3.641,0.697C10.416,29.983,10.926,30,15,30
		c4.074,0,4.585-0.017,6.185-0.09c1.597-0.073,2.688-0.326,3.642-0.697c0.986-0.384,1.822-0.896,2.656-1.73s1.347-1.67,1.73-2.656
		c0.371-0.954,0.624-2.045,0.697-3.642C29.983,19.585,30,19.074,30,15c0-4.074-0.017-4.584-0.09-6.184
		c-0.073-1.597-0.326-2.687-0.697-3.641c-0.384-0.986-0.896-1.823-1.73-2.657c-0.834-0.833-1.67-1.347-2.656-1.73
		c-0.954-0.371-2.045-0.625-3.642-0.697C19.585,0.018,19.074,0,15,0L15,0z"/>
	<path d="M15,7.297c-4.254,0-7.703,3.449-7.703,7.703s3.449,7.703,7.703,7.703s7.703-3.449,7.703-7.703S19.254,7.297,15,7.297z
		 M15,20c-2.761,0-5-2.238-5-5c0-2.761,2.239-5,5-5c2.762,0,5,2.239,5,5C20,17.762,17.762,20,15,20z"/>
	<circle cx="23.007" cy="6.993" r="1.8"/>
</g>
</svg>
