<?xml version="1.0" encoding="UTF-8" standalone="no"?>
<!-- Created with Inkscape (http://www.inkscape.org/) -->

<svg
   xmlns:dc="http://purl.org/dc/elements/1.1/"
   xmlns:cc="http://creativecommons.org/ns#"
   xmlns:rdf="http://www.w3.org/1999/02/22-rdf-syntax-ns#"
   xmlns:svg="http://www.w3.org/2000/svg"
   xmlns="http://www.w3.org/2000/svg"
   version="1.1"
   width="20"
   height="20"
   viewBox="0 0 20 20"
   id="Capa_1"
   xml:space="preserve"><metadata
   id="metadata19"><rdf:RDF><cc:Work
       rdf:about=""><dc:format>image/svg+xml</dc:format><dc:type
         rdf:resource="http://purl.org/dc/dcmitype/StillImage" /><dc:title></dc:title></cc:Work></rdf:RDF></metadata><defs
   id="defs17" />
<g
   id="g3">
	<path
   d="m 14.813,12.966 c -1.588,2.187 -2.145,2.107 -2.145,2.107 C 10.587,14.877 7.617,12.51 7.544,12.451 l 0.002,-0.004 c 0,0 -2.423,-3.021 -2.622,-5.128 0,0 -0.08,-0.557 2.106,-2.148 0,0 -1.073,-2.707 -3.059,-5.171 0,0 -1.066,0.082 -3.971,4.456 0,0 0.394,4.969 5.479,10.058 L 5.476,14.517 C 10.562,19.605 15.529,20 15.529,20 c 4.368,-2.906 4.45,-3.973 4.45,-3.973 -2.461,-1.987 -5.166,-3.061 -5.166,-3.061 z"
   id="path5" />
	<g
   id="g7">
		<path
   d="M 15.73,10.438 14.539,10.402 C 14.58,9.027 14.217,7.93 13.457,7.143 12.117,5.755 9.95,5.728 9.929,5.728 L 9.93,4.535 c 0.108,0 2.68,0.02 4.377,1.771 0.996,1.027 1.476,2.418 1.423,4.132 l 0,0 z"
   id="path9" />
	</g>
	<g
   id="g11">
		<path
   d="m 19.993,10.438 -1.19,-0.036 C 18.883,7.761 18.172,5.644 16.692,4.114 14.104,1.438 9.97,1.396 9.929,1.396 L 9.93,0.203 c 0.048,0 1.186,0.005 2.686,0.38 1.998,0.5 3.701,1.431 4.926,2.694 1.715,1.771 2.541,4.18 2.451,7.161 l 0,0 z"
   id="path13" />
	</g>
</g>
</svg>