<?xml version="1.0" encoding="utf-8"?>
<!-- Generator: Adobe Illustrator 14.0.0, SVG Export Plug-In . SVG Version: 6.00 Build 43363)  -->
<!DOCTYPE svg PUBLIC "-//W3C//DTD SVG 1.1//EN" "http://www.w3.org/Graphics/SVG/1.1/DTD/svg11.dtd">
<svg version="1.1" id="Capa_1" xmlns="http://www.w3.org/2000/svg" xmlns:xlink="http://www.w3.org/1999/xlink" x="0px" y="0px"
	 width="20px" height="20px" viewBox="0 0 20 20" enable-background="new 0 0 20 20" xml:space="preserve">
<g>
	<path d="M14.813,12.966c-1.588,2.187-2.145,2.107-2.145,2.107c-2.081-0.196-5.051-2.563-5.124-2.622l0.002-0.004
		c0,0-2.423-3.021-2.622-5.128c0,0-0.08-0.557,2.106-2.148c0,0-1.073-2.707-3.059-5.171c0,0-1.066,0.082-3.971,4.456
		c0,0,0.394,4.969,5.479,10.058l-0.003,0.003C10.562,19.605,15.529,20,15.529,20c4.368-2.906,4.45-3.973,4.45-3.973
		C17.518,14.04,14.813,12.966,14.813,12.966z"/>
	<g>
		<path d="M15.73,10.438l-1.191-0.036c0.041-1.375-0.322-2.472-1.082-3.259c-1.34-1.388-3.507-1.415-3.528-1.415L9.93,4.535
			c0.108,0,2.68,0.02,4.377,1.771C15.303,7.333,15.783,8.724,15.73,10.438L15.73,10.438z"/>
	</g>
	<g>
		<path d="M19.993,10.438l-1.19-0.036c0.08-2.641-0.631-4.758-2.111-6.288C14.104,1.438,9.97,1.396,9.929,1.396L9.93,0.203
			c0.048,0,1.186,0.005,2.686,0.38c1.998,0.5,3.701,1.431,4.926,2.694C19.257,5.048,20.083,7.457,19.993,10.438L19.993,10.438z"/>
	</g>
</g>
</svg>
