<svg xmlns="http://www.w3.org/2000/svg" width="20" height="20"><path d="M14.813 12.966c-1.588 2.187-2.145 2.107-2.145 2.107-2.08-.196-5.05-2.563-5.124-2.622l.002-.003S5.123 9.427 4.924 7.32c0 0-.08-.558 2.106-2.15 0 0-1.073-2.706-3.06-5.17 0 0-1.065.082-3.97 4.456 0 0 .394 4.97 5.48 10.058l-.004.003C10.562 19.605 15.53 20 15.53 20c4.367-2.906 4.45-3.973 4.45-3.973-2.462-1.987-5.167-3.06-5.167-3.06zM15.73 10.438l-1.19-.036c.04-1.375-.323-2.472-1.083-3.26C12.117 5.756 9.95 5.73 9.93 5.73V4.535c.108 0 2.68.02 4.377 1.77.996 1.028 1.476 2.42 1.423 4.133zM19.993 10.438l-1.19-.036c.08-2.64-.63-4.758-2.11-6.288-2.59-2.676-6.723-2.718-6.764-2.718V.203c.048 0 1.186.005 2.686.38 1.998.5 3.7 1.43 4.926 2.694 1.715 1.77 2.54 4.18 2.45 7.16z"/></svg>