<?xml version="1.0" encoding="utf-8"?>
<!-- Generator: Adobe Illustrator 14.0.0, SVG Export Plug-In . SVG Version: 6.00 Build 43363)  -->
<!DOCTYPE svg PUBLIC "-//W3C//DTD SVG 1.1//EN" "http://www.w3.org/Graphics/SVG/1.1/DTD/svg11.dtd">
<svg version="1.1" id="Capa_1" xmlns="http://www.w3.org/2000/svg" xmlns:xlink="http://www.w3.org/1999/xlink" x="0px" y="0px"
	 width="15px" height="15px" viewBox="0 0 15 15" enable-background="new 0 0 15 15" xml:space="preserve">
<path fill="#FFFFFF" d="M15,13.338l-2.939-2.938c0.747-1.072,1.188-2.373,1.188-3.775C13.248,2.972,10.277,0,6.624,0
	C2.972,0,0,2.972,0,6.624c0,3.653,2.972,6.624,6.624,6.624c1.403,0,2.702-0.441,3.774-1.188L13.338,15L15,13.338z M2.35,6.624
	c0-2.356,1.917-4.274,4.274-4.274c2.356,0,4.274,1.917,4.274,4.274s-1.918,4.274-4.274,4.274C4.267,10.898,2.35,8.98,2.35,6.624z"/>
</svg>
