<?xml version="1.0" encoding="UTF-8" standalone="no"?>
<!-- Created with Inkscape (http://www.inkscape.org/) -->

<svg
   xmlns:dc="http://purl.org/dc/elements/1.1/"
   xmlns:cc="http://creativecommons.org/ns#"
   xmlns:rdf="http://www.w3.org/1999/02/22-rdf-syntax-ns#"
   xmlns:svg="http://www.w3.org/2000/svg"
   xmlns="http://www.w3.org/2000/svg"
   version="1.1"
   width="15"
   height="15"
   viewBox="0 0 15 15"
   id="Capa_1"
   xml:space="preserve"><metadata
   id="metadata9"><rdf:RDF><cc:Work
       rdf:about=""><dc:format>image/svg+xml</dc:format><dc:type
         rdf:resource="http://purl.org/dc/dcmitype/StillImage" /><dc:title></dc:title></cc:Work></rdf:RDF></metadata><defs
   id="defs7" />
<path
   d="M 15,13.338 12.061,10.4 C 12.808,9.328 13.249,8.027 13.249,6.625 13.248,2.972 10.277,0 6.624,0 2.972,0 0,2.972 0,6.624 c 0,3.653 2.972,6.624 6.624,6.624 1.403,0 2.702,-0.441 3.774,-1.188 L 13.338,15 15,13.338 z M 2.35,6.624 c 0,-2.356 1.917,-4.274 4.274,-4.274 2.356,0 4.274,1.917 4.274,4.274 0,2.357 -1.918,4.274 -4.274,4.274 C 4.267,10.898 2.35,8.98 2.35,6.624 z"
   id="path3"
   style="fill:#ffffff" />
</svg>