<?xml version="1.0" encoding="UTF-8" standalone="no"?>
<!-- Created with Inkscape (http://www.inkscape.org/) -->

<svg
   xmlns:dc="http://purl.org/dc/elements/1.1/"
   xmlns:cc="http://creativecommons.org/ns#"
   xmlns:rdf="http://www.w3.org/1999/02/22-rdf-syntax-ns#"
   xmlns:svg="http://www.w3.org/2000/svg"
   xmlns="http://www.w3.org/2000/svg"
   version="1.1"
   width="20"
   height="20"
   viewBox="0 0 20 20"
   id="Capa_1"
   xml:space="preserve"><metadata
   id="metadata17"><rdf:RDF><cc:Work
       rdf:about=""><dc:format>image/svg+xml</dc:format><dc:type
         rdf:resource="http://purl.org/dc/dcmitype/StillImage" /><dc:title></dc:title></cc:Work></rdf:RDF></metadata><defs
   id="defs15" />
<g
   id="g3">
	<g
   id="g5">
		<path
   d="M 10,20 C 7.329,20 4.818,18.961 2.929,17.072 1.04,15.183 0,12.672 0,10 0,7.329 1.04,4.818 2.929,2.929 4.817,1.041 7.329,0 10,0 12.672,0 15.182,1.041 17.071,2.929 18.959,4.818 20,7.329 20,10 20,12.672 18.959,15.183 17.07,17.072 15.182,18.961 12.672,20 10,20 l 0,0 z M 10,1.924 c -4.453,0 -8.077,3.622 -8.077,8.076 0,4.455 3.624,8.077 8.077,8.077 4.454,0 8.077,-3.622 8.077,-8.077 C 18.076,5.546 14.453,1.924 10,1.924 l 0,0 z"
   id="path7" />
	</g>
	<g
   id="g9">
		<polygon
   points="9.039,10.483 9.039,3.505 10.961,3.505 10.961,9.518 14.4,12.08 13.252,13.623 13.252,13.623 "
   id="polygon11" />
	</g>
</g>
</svg>