<?xml version="1.0" encoding="utf-8"?>
<!-- Generator: Adobe Illustrator 14.0.0, SVG Export Plug-In . SVG Version: 6.00 Build 43363)  -->
<!DOCTYPE svg PUBLIC "-//W3C//DTD SVG 1.1//EN" "http://www.w3.org/Graphics/SVG/1.1/DTD/svg11.dtd">
<svg version="1.1" id="Capa_1" xmlns="http://www.w3.org/2000/svg" xmlns:xlink="http://www.w3.org/1999/xlink" x="0px" y="0px"
	 width="20px" height="20px" viewBox="0 0 20 20" enable-background="new 0 0 20 20" xml:space="preserve">
<g>
	<g>
		<path d="M10,20c-2.671,0-5.182-1.039-7.071-2.928C1.04,15.183,0,12.672,0,10c0-2.671,1.04-5.182,2.929-7.071
			C4.817,1.041,7.329,0,10,0c2.672,0,5.182,1.041,7.071,2.929C18.959,4.818,20,7.329,20,10c0,2.672-1.041,5.183-2.93,7.072
			C15.182,18.961,12.672,20,10,20L10,20z M10,1.924c-4.453,0-8.077,3.622-8.077,8.076c0,4.455,3.624,8.077,8.077,8.077
			c4.454,0,8.077-3.622,8.077-8.077C18.076,5.546,14.453,1.924,10,1.924L10,1.924z"/>
	</g>
	<g>
		<polygon points="13.252,13.623 9.039,10.483 9.039,3.505 10.961,3.505 10.961,9.518 14.4,12.08 13.252,13.623 		"/>
	</g>
</g>
</svg>
