<?xml version="1.0" encoding="utf-8"?>
<!-- Generator: Adobe Illustrator 14.0.0, SVG Export Plug-In . SVG Version: 6.00 Build 43363)  -->
<!DOCTYPE svg PUBLIC "-//W3C//DTD SVG 1.1//EN" "http://www.w3.org/Graphics/SVG/1.1/DTD/svg11.dtd">
<svg version="1.1" id="Capa_1" xmlns="http://www.w3.org/2000/svg" xmlns:xlink="http://www.w3.org/1999/xlink" x="0px" y="0px"
	 width="20px" height="20px" viewBox="0 0 20 20" enable-background="new 0 0 20 20" xml:space="preserve">
<path d="M19.764,12.13C19.915,11.434,20,10.722,20,10c0-0.722-0.085-1.433-0.236-2.13h0.093l-0.429-1.209
	c0-0.001-0.001-0.003-0.001-0.004l-0.215-0.605h-0.027C17.617,2.408,14.008,0,10,0C5.993,0,2.383,2.408,0.815,6.052H0.788
	L0.574,6.658L0.144,7.87h0.094C0.085,8.567,0,9.279,0,10c0,0.722,0.085,1.433,0.237,2.13H0.144l0.43,1.213l0.214,0.605h0.027
	C2.383,17.592,5.993,20,10,20c4.008,0,7.617-2.408,9.185-6.052h0.027l0.215-0.604c0.001-0.002,0.001-0.005,0.002-0.008l0.428-1.206
	H19.764z M18.182,10c0,0.725-0.094,1.439-0.28,2.13h-3.447c0.068-0.705,0.106-1.42,0.106-2.13s-0.038-1.424-0.106-2.13h3.447
	C18.088,8.562,18.182,9.275,18.182,10z M10,18.182c-0.784,0-1.816-1.572-2.363-4.233h4.726C11.815,16.609,10.784,18.182,10,18.182z
	 M7.365,12.13C7.298,11.463,7.257,10.755,7.257,10s0.041-1.462,0.107-2.13h5.27c0.066,0.667,0.107,1.375,0.107,2.13
	s-0.041,1.463-0.107,2.13H7.365z M10,1.818c0.784,0,1.815,1.573,2.363,4.234H7.637C8.184,3.392,9.216,1.818,10,1.818z M17.168,6.052
	h-2.969c-0.255-1.365-0.643-2.624-1.161-3.636C14.775,3.113,16.249,4.386,17.168,6.052z M6.962,2.416
	C6.443,3.429,6.056,4.688,5.8,6.052H2.832C3.751,4.386,5.225,3.114,6.962,2.416z M1.818,10c0-0.724,0.094-1.438,0.28-2.13h3.446
	C5.478,8.576,5.439,9.291,5.439,10s0.039,1.425,0.106,2.13H2.099C1.912,11.438,1.818,10.725,1.818,10z M2.832,13.948H5.8
	c0.255,1.364,0.643,2.623,1.162,3.636C5.225,16.886,3.751,15.614,2.832,13.948z M13.038,17.584c0.519-1.013,0.906-2.271,1.161-3.636
	h2.969C16.249,15.614,14.775,16.887,13.038,17.584z"/>
</svg>
